<svg id="Layer_1" data-name="Layer 1" xmlns="http://www.w3.org/2000/svg" xmlns:xlink="http://www.w3.org/1999/xlink" viewBox="0 0 133.38 216"><defs><style>.cls-1{fill:none;}.cls-2{clip-path:url(#clip-path);}.cls-3{fill:#f79420;}.cls-4{fill:#fff;}</style><clipPath id="clip-path" transform="translate(-50.21 -7.2)"><rect class="cls-1" x="10" width="213.4" height="230.4"/></clipPath></defs><title>devncode</title><g class="cls-2"><path class="cls-3" d="M50.32,85.28s19.72-18,55.39-10.73c0,0,1.67,4.29-6.3,8.58a66.14,66.14,0,0,0,26.86-12s4.61,5.58-8.39,13.73c0,0,13.84-.86,40.28-21.88,0,0,8,3.43,8,22.31,0,0,3.36-2.58,6.72-15,0,0,4.19,1.72,7.13,13.73,0,0,7.55-13.73.84-22.3,0,0,4.2-39.91-2.52-54.49,0,0-9.65,15.87-42,18.44,0,0-38.18-4.28-69.64,18A53.16,53.16,0,0,0,50.32,85.28" transform="translate(-50.21 -7.2)"/><path class="cls-3" d="M181,218.59a4.6,4.6,0,0,1-4.58,4.61h-119a4.62,4.62,0,0,1,0-9.23h119a4.6,4.6,0,0,1,4.58,4.62" transform="translate(-50.21 -7.2)"/><path class="cls-3" d="M182.83,182.49c0,15.29-12.08,27.68-27,27.68H78c-14.9,0-27-12.39-27-27.68V157.13c0-15.29,12.08-27.69,27-27.69h77.91c14.89,0,27,12.4,27,27.69Z" transform="translate(-50.21 -7.2)"/><path class="cls-4" d="M59.72,182.42q-1.28-1.72-1.27-5.66a16.3,16.3,0,0,1,.49-4.47,4.37,4.37,0,0,1,1.67-2.47,5.73,5.73,0,0,1,3.24-.79,11,11,0,0,1,3.66.68v-6.66h4V184H68.15l-.64-1.4a6.77,6.77,0,0,1-1.82,1.12,5.61,5.61,0,0,1-2.12.45,4.46,4.46,0,0,1-3.85-1.73m7.79-2.37v-7.4c-.46-.18-.88-.32-1.24-.43a4.75,4.75,0,0,0-1.14-.15,3,3,0,0,0-1.62.37,2.11,2.11,0,0,0-.83,1.35,10.49,10.49,0,0,0-.28,2.78,9.89,9.89,0,0,0,.26,2.64,2.18,2.18,0,0,0,.8,1.3,2.72,2.72,0,0,0,1.51.37,4.59,4.59,0,0,0,2.54-.83" transform="translate(-50.21 -7.2)"/><path class="cls-4" d="M76.68,183.46a4,4,0,0,1-2-2.28,13,13,0,0,1-.63-4.56,14.32,14.32,0,0,1,.59-4.64,3.88,3.88,0,0,1,1.94-2.3,9,9,0,0,1,3.81-.65,11,11,0,0,1,3.45.43A3.17,3.17,0,0,1,85.65,171a6.81,6.81,0,0,1,.57,3.09A3.62,3.62,0,0,1,85,177.15a5.64,5.64,0,0,1-3.46.91H78a5.19,5.19,0,0,0,.35,1.82,1.83,1.83,0,0,0,1,.94,6.83,6.83,0,0,0,2.2.27h4.19v2.4c-.94.19-1.8.35-2.57.46a19.05,19.05,0,0,1-2.67.16,9.22,9.22,0,0,1-3.82-.65m4.49-7.82a1.74,1.74,0,0,0,1.19-.34,1.58,1.58,0,0,0,.36-1.17,2.22,2.22,0,0,0-.53-1.69,3.6,3.6,0,0,0-3.28-.16,1.84,1.84,0,0,0-.76,1.11,8.17,8.17,0,0,0-.24,2.25Z" transform="translate(-50.21 -7.2)"/><polygon class="cls-4" points="37.13 162.04 41.22 162.04 44.32 173.02 47.51 162.04 51.54 162.04 46.51 176.77 41.94 176.77 37.13 162.04"/><path class="cls-4" d="M103.63,169.25h3.26l.7,1.5a8.29,8.29,0,0,1,2.11-1.25,6.37,6.37,0,0,1,2.4-.5,4,4,0,0,1,3.46,1.42,6.59,6.59,0,0,1,1,3.84V184h-4v-9.18a2.12,2.12,0,0,0-.55-1.59,2,2,0,0,0-1.51-.55,5,5,0,0,0-3,1.09V184h-4Z" transform="translate(-50.21 -7.2)"/><path class="cls-4" d="M120.69,182.47c-1.06-1.12-1.58-3.05-1.58-5.79a12.46,12.46,0,0,1,.69-4.61,4.52,4.52,0,0,1,2-2.36,7.57,7.57,0,0,1,3.4-.68,18.4,18.4,0,0,1,5,.68V172h-3.78a4.28,4.28,0,0,0-2,.39,2.28,2.28,0,0,0-1,1.37,9.16,9.16,0,0,0-.33,2.85,8.63,8.63,0,0,0,.33,2.78,2.1,2.1,0,0,0,1,1.3,5,5,0,0,0,2.06.34h3.94v2.3a16.38,16.38,0,0,1-2.49.56,20.29,20.29,0,0,1-2.84.22,5.75,5.75,0,0,1-4.43-1.68" transform="translate(-50.21 -7.2)"/><path class="cls-4" d="M134.94,183.42a4.21,4.21,0,0,1-2.07-2.34,12.34,12.34,0,0,1-.66-4.51,12.78,12.78,0,0,1,.66-4.62,4,4,0,0,1,2.07-2.28,9.46,9.46,0,0,1,3.85-.64,9.24,9.24,0,0,1,3.86.66,4.15,4.15,0,0,1,2.09,2.31,16.39,16.39,0,0,1,0,9.14,4.06,4.06,0,0,1-2.05,2.31,9.42,9.42,0,0,1-3.9.66,8.9,8.9,0,0,1-3.85-.69m5.42-2.83a1.85,1.85,0,0,0,.8-1.21,10.33,10.33,0,0,0,.27-2.81,10.46,10.46,0,0,0-.27-2.82,1.91,1.91,0,0,0-.8-1.2,4.51,4.51,0,0,0-3.13,0,2,2,0,0,0-.8,1.2,10.89,10.89,0,0,0-.27,2.82,10.75,10.75,0,0,0,.27,2.81,1.89,1.89,0,0,0,.8,1.21,4.37,4.37,0,0,0,3.13,0" transform="translate(-50.21 -7.2)"/><path class="cls-4" d="M148.85,182.42c-.84-1.15-1.27-3-1.27-5.66a16.3,16.3,0,0,1,.49-4.47,4.41,4.41,0,0,1,1.67-2.47A5.73,5.73,0,0,1,153,169a11,11,0,0,1,3.67.68v-6.66h4V184h-3.33l-.64-1.4a7,7,0,0,1-1.83,1.12,5.56,5.56,0,0,1-2.11.45,4.47,4.47,0,0,1-3.86-1.73m7.8-2.37v-7.4c-.47-.18-.89-.32-1.25-.43a4.67,4.67,0,0,0-1.13-.15,2.94,2.94,0,0,0-1.62.37,2.16,2.16,0,0,0-.85,1.35,11.09,11.09,0,0,0-.26,2.78,10.41,10.41,0,0,0,.25,2.64,2.18,2.18,0,0,0,.8,1.3,2.74,2.74,0,0,0,1.51.37,4.6,4.6,0,0,0,2.55-.83" transform="translate(-50.21 -7.2)"/><path class="cls-4" d="M165.81,183.46a4,4,0,0,1-2-2.28,13,13,0,0,1-.62-4.56,14.36,14.36,0,0,1,.58-4.64,3.88,3.88,0,0,1,1.94-2.3,9,9,0,0,1,3.81-.65,11,11,0,0,1,3.45.43,3.17,3.17,0,0,1,1.83,1.54,6.79,6.79,0,0,1,.58,3.09,3.62,3.62,0,0,1-1.19,3.06,5.7,5.7,0,0,1-3.47.91h-3.6a5,5,0,0,0,.35,1.82,1.83,1.83,0,0,0,1,.94,6.76,6.76,0,0,0,2.19.27h4.2v2.4c-.95.19-1.8.35-2.57.46a19.2,19.2,0,0,1-2.68.16,9.28,9.28,0,0,1-3.82-.65m4.49-7.82a1.73,1.73,0,0,0,1.19-.34,1.58,1.58,0,0,0,.36-1.17,2.22,2.22,0,0,0-.53-1.69,3.6,3.6,0,0,0-3.28-.16,1.87,1.87,0,0,0-.75,1.11,7.74,7.74,0,0,0-.25,2.25Z" transform="translate(-50.21 -7.2)"/><path class="cls-3" d="M161.3,113.82c-2.54,4.39-4.36,7.2-14.39,8.31s-15.65-1.95-18.84-7.56-6.46-16.26-2.83-20.75,13.3-5.42,19-5.33,17.75,1,19.39,5.05.18,15.89-2.37,20.28m-55.63.75c-3.19,5.61-8.83,8.69-18.85,7.56S75,118.21,72.43,113.82s-4-16.26-2.36-20.28,13.75-5,19.39-5.05,15.39.85,19,5.33.36,15.15-2.82,20.75m28.09-28a60.22,60.22,0,0,1-16.89,2,60,60,0,0,1-16.86-2c-7.29-1.77-27.82-1.3-37,5.7v6.45s2.33-.28,3.6,5.79,4.18,15.15,11.28,18,19.61,3.36,25.62-1.69,7.63-12.15,8.63-16.17,1.06-6.91,4.71-6.91,3.71,2.89,4.71,6.91,2.62,11.12,8.62,16.17,18.54,4.58,25.64,1.69,10-12,11.3-18,3.64-5.79,3.64-5.79V92.23c-9.11-7-29.73-7.47-37-5.7" transform="translate(-50.21 -7.2)"/></g></svg>