<svg width="1000" height="1000" viewBox="0 0 1000 1000" fill="none" xmlns="http://www.w3.org/2000/svg">
<path fill-rule="evenodd" clip-rule="evenodd" d="M312.486 564.703V662.793L229.905 564.703H186.334V748.801H238.176V650.711L320.778 748.801H364.346V564.703H312.486Z" fill="#333333"/>
<mask id="mask0" mask-type="alpha" maskUnits="userSpaceOnUse" x="389" y="603" width="98" height="146">
<path fill-rule="evenodd" clip-rule="evenodd" d="M389.244 603.895H486.272V748.802H389.244V603.895Z" fill="white"/>
</mask>
<g mask="url(#mask0)">
<path fill-rule="evenodd" clip-rule="evenodd" d="M457.812 608.764C449.524 611.999 442.806 616.868 437.623 623.355V606.255H389.244V748.804H440.049V683.311C440.049 671.393 443.117 662.544 449.253 656.762C455.409 650.959 463.906 648.08 474.791 648.08C477.816 648.08 481.651 648.351 486.272 648.866V603.895C475.598 603.895 466.104 605.51 457.812 608.764" fill="#333333"/>
</g>
<path fill-rule="evenodd" clip-rule="evenodd" d="M677.449 606.256L657.094 679.021L637.526 606.256H594.225L573.849 678.235L554.573 606.256H506.461L547.669 748.802H596.837L614.809 683.477L631.703 748.802H680.871L722.076 606.256H677.449Z" fill="#333333"/>
<path fill-rule="evenodd" clip-rule="evenodd" d="M791.953 560.118V531.2H741.059V547.974L791.953 560.118Z" fill="#333333"/>
<path fill-rule="evenodd" clip-rule="evenodd" d="M812.245 708.119V746.834C812.245 746.834 805.195 747.601 796.946 747.601C769.897 747.601 741.064 741.921 741.064 697.279V569.368L791.953 574.153V691.352C791.953 703.996 794.605 708.389 806.067 708.389C809.3 708.389 812.245 708.119 812.245 708.119" fill="#333333"/>
<path fill-rule="evenodd" clip-rule="evenodd" d="M461.328 391.942C459.76 392.026 458.577 393.88 458.664 396.119C458.748 398.354 460.102 400.124 461.642 400.037C463.21 399.981 464.406 398.112 464.307 395.889C464.223 393.653 462.869 391.883 461.328 391.942M466.375 424.254C465.362 419.907 462.083 416.941 459.033 417.64C455.983 418.339 454.328 422.459 455.356 426.806C456.368 431.15 459.645 434.144 462.694 433.417C465.732 432.718 467.387 428.601 466.375 424.254M481.571 377.376C478.449 377.178 475.654 380.596 475.341 385.074C475.015 389.533 477.279 393.34 480.387 393.538C483.524 393.765 486.303 390.346 486.617 385.884C486.946 381.41 484.679 377.618 481.571 377.376M489.238 453.516C485.49 448.998 479.915 447.43 476.766 450.036C473.601 452.644 474.058 458.419 477.778 462.95C481.486 467.468 487.086 469.036 490.25 466.427C493.418 463.819 492.946 458.047 489.238 453.516" fill="#A776C1"/>
<path fill-rule="evenodd" clip-rule="evenodd" d="M572.319 581.791C572.148 581.819 571.949 581.819 571.735 581.819C569.853 581.875 567.943 581.906 566.061 581.906C545.406 581.906 525.462 578.997 506.589 573.553C505.334 573.168 504.095 572.768 502.813 572.327C496.781 570.389 490.949 568.067 485.263 565.427C476.611 570.302 467.018 573.724 456.738 575.292C454.387 575.634 452.049 575.892 449.639 576.047C444.993 576.36 440.446 576.301 435.968 575.861L435.94 575.833C430.552 575.292 425.005 575.177 419.406 575.547C409.738 576.19 400.518 578.214 391.906 581.434C390.707 578.326 389.968 574.991 389.726 571.513C388.486 552.874 402.583 536.767 421.201 535.525C428.17 535.056 434.586 536.625 440.201 539.872C443.254 541.555 446.673 542.794 450.266 543.521C449.754 543.096 449.226 542.652 448.741 542.223C448.586 542.111 448.443 541.981 448.3 541.841C445.077 539.146 441.943 536.311 438.962 533.318C434.614 529.197 429.241 523.568 423.909 516.255C423.44 515.656 422.968 515.016 422.483 514.373C421.201 512.638 419.931 510.896 418.707 509.101C412.791 500.45 407.657 491.2 403.452 481.478C402.983 480.41 402.527 479.342 402.086 478.227C400.732 474.951 399.505 471.616 398.378 468.253C397.993 467.154 397.623 466.03 397.266 464.888C396.611 462.751 395.999 460.599 395.412 458.444C395.126 457.376 394.828 456.308 394.573 455.197C393.931 452.616 393.359 450.036 392.862 447.431C392.434 445.248 392.021 443.025 391.676 440.786C391.465 439.416 391.266 438.038 391.095 436.637C390.921 435.457 390.778 434.231 390.651 433.02C390.536 431.905 390.424 430.837 390.309 429.741C390.309 429.527 390.282 429.328 390.282 429.126C390.167 427.959 390.083 426.804 390.024 425.648C389.924 424.397 389.841 423.155 389.809 421.901C389.698 419.435 389.639 416.942 389.639 414.42C389.639 412.964 389.67 411.554 389.698 410.129C389.726 408.934 389.754 407.748 389.809 406.565C389.841 405.897 389.896 405.226 389.924 404.556C389.996 403.571 390.055 402.59 390.139 401.634C390.226 400.208 390.368 398.811 390.511 397.401C390.595 396.433 390.707 395.476 390.837 394.495C391.036 392.784 391.266 391.073 391.521 389.362C391.62 388.72 391.707 388.108 391.819 387.481C391.962 386.624 392.077 385.785 392.247 384.944C392.49 383.59 392.747 382.224 393.033 380.895C393.303 379.528 393.589 378.187 393.903 376.833C394.201 375.579 394.486 374.368 394.8 373.113C397.266 363.478 400.545 354.2 404.608 345.363C405.077 344.31 405.564 343.298 406.061 342.286C408.415 337.383 410.993 332.62 413.803 328.018C415.17 325.751 416.595 323.544 418.077 321.376C419.573 319.165 421.114 316.986 422.713 314.849C424.282 312.753 425.903 310.701 427.53 308.664C428.514 307.537 429.468 306.369 430.452 305.242C431.266 304.345 432.077 303.419 432.89 302.519C433.8 301.538 434.701 300.566 435.626 299.585C436.524 298.628 437.48 297.675 438.406 296.747C438.58 296.532 438.763 296.362 438.962 296.191C440.558 294.595 442.213 293.055 443.865 291.518C455.813 280.585 469.368 271.39 484.151 264.323C485.148 263.823 486.16 263.323 487.201 262.898C492.049 260.659 497.008 258.691 502.083 256.952C503.182 256.57 504.266 256.225 505.362 255.871C506.005 255.669 506.617 255.471 507.244 255.3C508.185 254.974 509.111 254.716 510.039 254.458C511.663 253.989 513.288 253.549 514.915 253.148C460.943 268.583 400.872 317.883 400.872 403.829C400.872 513.063 491.791 534.215 534.086 553.855C559.732 565.741 568.983 575.749 572.319 581.791" fill="#96D7E8"/>
<path fill-rule="evenodd" clip-rule="evenodd" d="M462.694 433.418C459.645 434.145 456.365 431.151 455.353 426.804C454.328 422.457 455.98 418.34 459.033 417.638C462.083 416.943 465.359 419.905 466.374 424.252C467.384 428.599 465.732 432.72 462.694 433.418" fill="#96D7E8"/>
<path fill-rule="evenodd" clip-rule="evenodd" d="M490.25 466.428C487.085 469.037 481.483 467.468 477.775 462.951C474.057 458.417 473.601 452.645 476.765 450.037C479.915 447.428 485.489 448.996 489.238 453.514C492.942 458.048 493.415 463.82 490.25 466.428" fill="#96D7E8"/>
<path fill-rule="evenodd" clip-rule="evenodd" d="M486.616 385.885C486.303 390.347 483.523 393.766 480.386 393.539C477.278 393.337 475.014 389.534 475.34 385.072C475.653 380.597 478.449 377.175 481.57 377.374C484.675 377.616 486.942 381.411 486.616 385.885" fill="#96D7E8"/>
<path fill-rule="evenodd" clip-rule="evenodd" d="M464.306 395.891C464.406 398.114 463.207 399.98 461.642 400.039C460.101 400.123 458.744 398.356 458.66 396.117C458.577 393.882 459.76 392.028 461.328 391.944C462.865 391.885 464.22 393.652 464.306 395.891" fill="#96D7E8"/>
<mask id="mask1" mask-type="alpha" maskUnits="userSpaceOnUse" x="400" y="247" width="470" height="335">
<path fill-rule="evenodd" clip-rule="evenodd" d="M400.871 247.987H869.564V581.791H400.871V247.987Z" fill="white"/>
</mask>
<g mask="url(#mask1)">
<path fill-rule="evenodd" clip-rule="evenodd" d="M577.334 538.59C576.294 542.822 571.862 545.387 567.384 544.278C562.921 543.207 560.157 538.891 561.182 534.656C562.226 530.439 565.617 532.249 570.052 533.345C574.527 534.413 578.375 534.385 577.334 538.59V538.59ZM490.25 466.427C487.085 469.036 481.483 467.468 477.774 462.95C474.057 458.419 473.601 452.644 476.765 450.035C479.914 447.43 485.489 448.995 489.237 453.516C492.942 458.047 493.414 463.819 490.25 466.427V466.427ZM462.694 433.417C459.645 434.144 456.365 431.15 455.353 426.806C454.328 422.459 455.98 418.339 459.033 417.64C462.083 416.941 465.359 419.907 466.374 424.254C467.384 428.601 465.732 432.718 462.694 433.417V433.417ZM461.327 391.942C462.865 391.883 464.219 393.653 464.306 395.889C464.405 398.112 463.206 399.981 461.641 400.037C460.101 400.124 458.743 398.354 458.66 396.119C458.576 393.88 459.759 392.026 461.327 391.942V391.942ZM475.34 385.074C475.654 380.596 478.446 377.178 481.57 377.376C484.675 377.618 486.943 381.41 486.616 385.884C486.303 390.346 483.52 393.765 480.387 393.538C477.278 393.34 475.011 389.533 475.34 385.074V385.074ZM748.126 395.19C747.669 395.107 747.213 395.02 746.744 394.92C746.129 394.781 745.517 394.638 744.89 394.464C744.29 394.309 743.679 394.138 743.079 393.939C743.064 393.924 743.051 393.924 743.036 393.924C742.651 393.796 742.266 393.666 741.88 393.539C741.126 393.284 740.371 392.983 739.613 392.669C739.613 392.654 739.601 392.669 739.601 392.669C737.719 391.899 735.865 390.974 734.085 389.918C731.818 388.592 729.651 387.052 727.641 385.341C726.129 384.074 724.719 382.692 723.421 381.224C722.98 380.739 722.551 380.239 722.151 379.727C719.7 376.69 717.762 373.327 716.508 369.75C706.728 334.66 685.744 304.202 657.663 282.538C629.551 260.858 594.34 247.987 556.095 247.987C542.067 247.987 528.424 249.726 515.396 253.005C515.225 253.061 515.082 253.092 514.911 253.148C460.939 268.583 400.871 317.883 400.871 403.829C400.871 513.063 491.79 534.215 534.085 553.855C559.731 565.741 568.983 575.749 572.315 581.791C600.514 581.006 627.356 574.764 651.831 564.061C654.129 562.99 656.036 561.766 657.604 560.44C658.66 561.167 659.899 561.651 661.213 561.85L748.126 570.032L815.11 576.332L869.564 581.434L665.116 544.977C664.974 544.946 664.834 544.918 664.719 544.89C664.52 539.729 659.986 536.311 658.247 533.957C656.734 531.92 656.679 530.566 656.679 530.566C655.253 509.858 645.887 491.284 631.616 477.944C618.874 466.03 602.281 458.218 583.865 456.681V456.65C581.896 452.886 578.93 449.666 575.337 447.4C569.707 442.996 566.085 435.883 566.085 428.173V428.03C554.126 429.098 544.377 437.879 541.88 449.368C519.545 438.292 504.207 415.259 504.207 388.664C504.207 370.194 511.576 353.446 523.551 341.246C539.716 324.211 562.225 313.924 587.526 313.924C628.595 313.924 663.123 341.845 673.185 379.727C666.657 387.822 656.651 393.622 646.728 395.277C628.312 398.469 613.828 413.15 610.933 431.65C627.983 431.65 639.331 454.911 671.02 454.911H671.033C678.93 454.911 686.073 451.747 691.275 446.589C691.775 446.089 692.244 445.589 692.716 445.061C693.172 444.533 693.613 443.993 694.026 443.437C694.34 443.024 694.638 442.596 694.939 442.155C695.238 441.726 695.511 441.273 695.781 440.817C696.321 439.919 696.806 438.975 697.25 438.007C697.393 437.693 697.536 437.367 697.663 437.038L697.675 437.053C697.946 437.708 698.247 438.336 698.545 438.963C698.859 439.606 699.203 440.217 699.557 440.817C700.101 441.726 700.685 442.596 701.312 443.437C701.526 443.708 701.741 443.993 701.952 444.266C702.396 444.807 702.865 445.335 703.337 445.831C703.576 446.089 703.821 446.344 704.064 446.589C706.3 448.797 708.88 450.635 711.731 452.032C712.359 452.33 713.002 452.616 713.657 452.886C716.964 454.184 720.557 454.911 724.318 454.911C724.918 454.911 725.502 454.898 726.073 454.883C726.657 454.87 727.228 454.839 727.797 454.811C728.368 454.783 728.936 454.752 729.495 454.696C729.992 454.656 730.492 454.613 730.977 454.557C732.017 454.442 733.03 454.299 734.026 454.141C734.455 454.069 734.88 453.985 735.297 453.914C735.722 453.83 736.138 453.743 736.551 453.656C736.964 453.572 737.377 453.485 737.79 453.386C738.188 453.287 738.589 453.187 738.989 453.088C740.185 452.774 741.34 452.43 742.464 452.06C744.048 451.532 745.557 450.964 747.014 450.337C747.384 450.179 747.753 450.023 748.126 449.837C748.297 449.766 748.467 449.694 748.638 449.61C748.794 449.523 748.967 449.44 749.138 449.368C763.762 442.497 772.759 431.65 784.405 431.65C781.539 413.321 767.312 398.755 749.138 395.392L748.126 395.19Z" fill="#48C4E5"/>
</g>
</svg>
