<?xml version="1.0" encoding="UTF-8"?>
<svg width="78px" height="24px" viewBox="0 0 78 24" version="1.1" xmlns="http://www.w3.org/2000/svg" xmlns:xlink="http://www.w3.org/1999/xlink">
    <!-- Generator: Sketch 48.2 (47327) - http://www.bohemiancoding.com/sketch -->
    <title>logo</title>
    <desc>Created with Sketch.</desc>
    <defs></defs>
    <g id="MASTER" stroke="none" stroke-width="1" fill="none" fill-rule="evenodd" transform="translate(-1011.000000, -283.000000)">
        <g id="sidebar" transform="translate(900.000000, 253.000000)" fill-rule="nonzero">
            <g id="Group-2-Copy">
                <g id="logo" transform="translate(111.000000, 30.000000)">
                    <path d="M11.7248408,0 L0.198726115,3.984 L1.98726115,18.672 L11.7248408,23.904 L21.5121019,18.672 L23.2509554,3.984 L11.7248408,0 Z M17.1401274,16.176 L16.0968153,13.488 L14.5070064,13.536 C14.1592357,14.112 13.811465,14.544 13.4636943,14.928 C13.0165605,15.408 12.5694268,15.696 11.9732484,15.936 C11.3273885,16.224 10.7808917,16.368 9.83694268,16.368 C8.89299363,16.368 8.09808917,16.08 7.60127389,15.792 C7.1044586,15.504 6.65732484,15.168 6.30955414,14.688 C6.0611465,14.352 5.86242038,14.064 5.7133758,13.728 C5.66369427,13.536 5.51464968,13.2 5.51464968,13.152 C5.41528662,12.768 5.31592357,12.528 5.31592357,11.616 L5.31592357,6.72 L6.65732484,6.72 L6.65732484,11.616 C6.70700637,11.952 6.80636943,12.624 6.85605096,12.912 C6.90573248,13.104 6.90573248,13.152 7.00509554,13.392 C7.1044586,13.632 7.20382166,13.824 7.40254777,14.016 C7.65095541,14.304 7.89936306,14.544 8.24713376,14.736 C8.59490446,14.928 9.14140127,15.168 9.83694268,15.168 C10.9796178,15.168 11.7745223,14.64 12.4700637,14.064 C12.7681529,13.776 13.1159236,13.2 13.4140127,12.672 C13.4636943,12.528 13.6127389,12.24 13.6127389,12.24 L15.6993631,12.24 L14.1592357,8.256 L11.6751592,12.864 L10.333758,12.864 L10.333758,6.672 L11.6751592,6.672 L11.6751592,10.032 L13.4636943,6.672 L14.9541401,6.672 L18.5808917,16.176 L17.1401274,16.176 Z" id="Shape" fill="#8F46C9" opacity="0.84"></path>
                    <path d="M13.4140127,12.672 C13.4636943,12.528 13.6127389,12.24 13.6127389,12.24 L15.6993631,12.24 L14.1592357,8.256 L11.7248408,12.768 L11.7248408,14.592 C11.9732484,14.448 12.2216561,14.256 12.4700637,14.064 C12.7681529,13.776 13.1159236,13.2 13.4140127,12.672 Z" id="Shape" fill-opacity="0.1" fill="#FFFFFF"></path>
                    <path d="M11.7248408,0 L11.7248408,9.936 L13.4636943,6.672 L14.9541401,6.672 L18.5808917,16.176 L17.1401274,16.176 L16.0968153,13.488 L14.5070064,13.536 C14.1592357,14.112 13.811465,14.544 13.4636943,14.928 C13.0165605,15.408 12.5694268,15.696 11.9732484,15.936 C11.8738854,15.984 11.8242038,16.032 11.7248408,16.032 L11.7248408,23.904 L21.5121019,18.672 L23.2509554,3.984 L11.7248408,0 Z" id="Shape" fill-opacity="0.0951936141" fill="#FFFFFF"></path>
                    <path d="M28.3184713,7.248 C28.3184713,7.968 28.9643312,8.4 29.7592357,8.4 C30.6535032,8.4 31.3490446,7.872 31.4980892,7.008 L31.9949045,4.512 L31.2993631,4.512 L30.8025478,6.912 C30.6535032,7.44 30.3057325,7.728 29.7592357,7.728 C29.2624204,7.728 29.0140127,7.536 29.0140127,7.104 L29.0140127,6.912 L29.510828,4.512 L28.8152866,4.512 L28.3184713,7.008 L28.3184713,7.248 Z M32.143949,8.352 L34.5783439,8.352 L34.7273885,7.728 L32.988535,7.728 L33.6343949,4.512 L32.9388535,4.512 L32.143949,8.352 Z M35.9694268,8.352 L36.6649682,8.352 L37.310828,5.136 L38.6522293,5.136 L38.7515924,4.512 L35.4726115,4.512 L35.2738854,5.088 L36.5159236,5.088 L35.9694268,8.352 Z M38.5031847,8.352 L39.1987261,8.352 L39.943949,4.512 L39.2484076,4.512 L38.5031847,8.352 Z M40.0929936,8.352 L40.788535,8.352 L41.4343949,6.192 C41.4840764,5.904 41.5834395,5.568 41.5834395,5.568 C41.5834395,5.568 41.633121,5.952 41.633121,6.192 L41.9808917,7.68 L42.6267516,7.68 L43.5210191,6.192 C43.6700637,6 43.8687898,5.568 43.8687898,5.568 C43.8687898,5.568 43.8191083,5.904 43.7197452,6.192 L43.4216561,8.352 L44.1171975,8.352 L44.5146497,4.512 L43.7694268,4.512 L42.5770701,6.384 C42.4280255,6.576 42.2789809,6.912 42.2789809,6.912 C42.2789809,6.912 42.2789809,6.576 42.2292994,6.384 L41.8318471,4.512 L41.0866242,4.512 C41.0369427,4.512 40.0929936,8.352 40.0929936,8.352 Z M45.3592357,8.352 L45.9057325,7.344 L47.2968153,7.344 L47.4458599,8.352 L48.1414013,8.352 L47.4955414,4.512 L46.7006369,4.512 L44.6140127,8.352 L45.3592357,8.352 Z M46.2038217,6.768 L46.7503185,5.76 C46.8993631,5.568 47.0484076,5.136 47.0484076,5.136 C47.0484076,5.136 47.0484076,5.52 47.0980892,5.76 L47.2471338,6.768 L46.2038217,6.768 Z M49.3834395,8.352 L50.0789809,8.352 L50.7248408,5.136 L52.066242,5.136 L52.2152866,4.512 L48.9363057,4.512 L48.7872611,5.136 L50.0292994,5.136 C50.0292994,5.088 49.3834395,8.352 49.3834395,8.352 Z M51.9171975,8.352 L54.3515924,8.352 L54.5006369,7.728 L52.7617834,7.728 L52.9605096,6.72 L54.3019108,6.72 L54.4509554,6.096 L53.1095541,6.096 L53.3082803,5.088 L54.9974522,5.088 L55.1464968,4.464 L52.6624204,4.464 C52.6624204,4.512 51.9171975,8.352 51.9171975,8.352 Z" id="Shape" fill="#8F46C9"></path>
                    <path d="M31.5477707,17.712 L32.889172,17.712 L30.4050955,10.896 L29.0636943,10.896 L26.5796178,17.712 L27.9210191,17.712 L28.5171975,15.984 L31.0012739,15.984 C31.0012739,15.984 31.5477707,17.712 31.5477707,17.712 Z M29.7095541,12.096 C29.7095541,12.096 29.8585987,12.768 30.0076433,13.152 L30.6535032,14.976 L28.8152866,14.976 L29.4611465,13.152 C29.5605096,12.768 29.7095541,12.096 29.7095541,12.096 Z M33.7834395,17.712 L35.0751592,17.712 L35.0751592,13.776 C35.0751592,13.392 35.0254777,12.72 35.0254777,12.72 C35.0254777,12.72 35.3235669,13.392 35.6216561,13.776 L38.3044586,17.712 L39.5961783,17.712 L39.5961783,10.896 L38.2547771,10.896 L38.2547771,14.832 C38.2547771,15.216 38.3044586,15.888 38.3044586,15.888 C38.3044586,15.888 38.0063694,15.216 37.7082803,14.832 L35.0254777,10.896 L33.7834395,10.896 L33.7834395,17.712 Z M40.8382166,14.304 C40.8382166,16.464 42.4280255,17.856 44.3159236,17.856 C45.6076433,17.856 46.3528662,17.136 46.3528662,17.136 L46.3528662,17.76 L47.4458599,17.76 L47.4458599,14.16 L45.2101911,14.16 L45.2101911,15.216 L46.3031847,15.216 L46.3031847,16.032 C46.3031847,16.032 45.6076433,16.752 44.5146497,16.752 C43.1732484,16.752 42.1299363,15.792 42.1299363,14.304 C42.1299363,13.008 42.9745223,11.952 44.5643312,11.952 C45.7070064,11.952 46.4522293,12.624 46.4522293,12.624 L47.0980892,11.712 C47.0980892,11.712 46.2038217,10.848 44.4649682,10.848 C42.3783439,10.8 40.8382166,12.336 40.8382166,14.304 Z M48.7872611,15.264 C48.7872611,16.8 49.9299363,17.808 51.6191083,17.808 C53.3082803,17.808 54.4509554,16.752 54.4509554,15.264 L54.4509554,10.896 L53.1592357,10.896 L53.1592357,15.264 C53.1592357,16.176 52.5133758,16.704 51.5694268,16.704 C50.6254777,16.704 50.0292994,16.176 50.0292994,15.264 L50.0292994,10.896 L48.7375796,10.896 L48.7872611,15.264 C48.7375796,15.264 48.7872611,15.264 48.7872611,15.264 Z M56.1401274,17.712 L60.4624204,17.712 L60.4624204,16.656 L57.4318471,16.656 L57.4318471,10.896 L56.1401274,10.896 L56.1401274,17.712 Z M65.6292994,17.712 L66.9707006,17.712 L64.4866242,10.896 L63.0955414,10.896 L60.611465,17.712 L61.9528662,17.712 L62.5490446,15.984 L65.033121,15.984 L65.6292994,17.712 Z M63.7910828,12.096 C63.7910828,12.096 63.9401274,12.768 64.089172,13.152 L64.7350318,14.976 L62.8968153,14.976 L63.5426752,13.152 C63.6420382,12.768 63.7910828,12.096 63.7910828,12.096 Z M67.8649682,17.712 L69.1566879,17.712 L69.1566879,15.168 L70.3987261,15.168 L71.7898089,17.712 L73.2305732,17.712 L71.7898089,15.168 C71.6407643,14.928 71.5414013,14.832 71.5414013,14.832 C72.2866242,14.544 72.733758,13.776 72.733758,12.96 C72.733758,12.048 72.2866242,11.424 71.5910828,11.088 C71.2929936,10.944 70.9452229,10.896 70.1503185,10.896 L67.8649682,10.896 L67.8649682,17.712 Z M69.1070064,14.112 L69.1070064,12 L70.1006369,12 C71.0942675,12 71.3923567,12.384 71.3923567,13.056 C71.3923567,13.728 70.9452229,14.112 70.2993631,14.112 L69.1070064,14.112 Z" id="Shape" fill="#8F46C9"></path>
                    <path d="M73.9261146,11.184 L73.9261146,10.896 L75.4165605,10.896 L75.4165605,11.184 L74.8700637,11.184 L74.8700637,12.576 L74.522293,12.576 L74.522293,11.184 L73.9261146,11.184 Z M76.1617834,10.896 L76.6089172,12.096 L77.056051,10.896 L77.5528662,10.896 L77.5528662,12.576 L77.2547771,12.576 L77.2547771,11.232 L76.7579618,12.576 L76.5095541,12.576 L76.0127389,11.232 L76.0127389,12.576 L75.7146497,12.576 L75.7146497,10.896 L76.1617834,10.896 Z" id="Shape" fill="#7D21B4"></path>
                </g>
            </g>
        </g>
    </g>
</svg>